<svg width="14" height="10" viewBox="0 0 14 10" fill="none" xmlns="http://www.w3.org/2000/svg">
<path fill-rule="evenodd" clip-rule="evenodd" d="M13.161 0.121762C13.1159 0.133301 13.0359 0.164473 12.9833 0.191023C12.9306 0.217574 11.0883 2.03736 8.88864 4.23544L4.88967 8.23159L2.99606 6.34088C1.66565 5.01255 1.06584 4.43166 0.979378 4.38791C0.813292 4.30385 0.546936 4.30175 0.389628 4.38326C0.242874 4.4593 0.096366 4.62481 0.036073 4.78269C-0.0232903 4.93812 -0.0082512 5.15364 0.072823 5.30953C0.15469 5.467 4.49193 9.79032 4.62206 9.84419C4.75246 9.89816 5.02633 9.89825 5.15701 9.84432C5.28695 9.7907 13.8322 1.25984 13.9208 1.09525C14.0029 0.942758 14.0032 0.647172 13.9214 0.493691C13.7733 0.215961 13.4366 0.0512421 13.161 0.121762Z" fill="#DE596D"/>
</svg>
