<svg width="26" height="26" viewBox="0 0 26 26" fill="none" xmlns="http://www.w3.org/2000/svg">
<path fill-rule="evenodd" clip-rule="evenodd" d="M12.0207 0.0244662C10.0939 0.208995 8.66081 0.616515 7.03835 1.44126C5.11639 2.41816 3.39174 3.96299 2.13421 5.83394C1.60176 6.62611 0.951105 7.96344 0.638692 8.90773C0.386525 9.66993 0.186215 10.5373 0.0637917 11.3972C-0.0212639 11.9948 -0.0212639 14.0005 0.0637917 14.5981C0.276812 16.0946 0.672603 17.4055 1.29097 18.6626C1.99058 20.0849 2.67586 21.0404 3.8072 22.171C4.9262 23.2892 5.89724 23.9875 7.26713 24.6591C8.22298 25.1277 8.84013 25.3557 9.80914 25.5986C12.3519 26.236 14.9021 26.1138 17.3863 25.2355C18.1393 24.9693 19.4539 24.3109 20.1297 23.8616C21.649 22.8512 23.0438 21.4223 24.0391 19.8565C24.4053 19.2804 24.9938 18.065 25.2339 17.389C26.4282 14.0257 26.2203 10.416 24.6507 7.26195C24.0172 5.9891 23.312 4.99151 22.3219 3.96761C21.2239 2.83208 20.1469 2.04865 18.7062 1.33726C17.2002 0.593702 15.7971 0.196802 14.1306 0.042909C13.6126 -0.00489994 12.4351 -0.0152137 12.0207 0.0244662ZM14.4264 1.16375C19.0382 1.72999 22.9062 4.93258 24.3419 9.37347C24.981 11.3508 25.081 13.551 24.6249 15.6057C24.2519 17.2859 23.4187 19.0213 22.3097 20.4276C21.9355 20.9021 20.8964 21.9406 20.4215 22.3146C18.6679 23.6956 16.598 24.5598 14.3715 24.8405C13.2387 24.9833 11.5838 24.8957 10.3819 24.6293C9.18706 24.3644 7.76852 23.7865 6.73717 23.1445C5.69114 22.4932 4.36446 21.321 3.66256 20.4276C2.27707 18.6643 1.41878 16.6108 1.13555 14.3816C1.05456 13.7441 1.05477 12.2523 1.13596 11.6005C1.34578 9.91604 1.97436 8.13242 2.86071 6.70623C3.72815 5.31048 5.17674 3.83993 6.54139 2.96967C7.37837 2.4359 8.38755 1.96421 9.377 1.64418C10.2718 1.35483 11.1333 1.19251 12.3257 1.08871C12.6643 1.05924 13.9489 1.10512 14.4264 1.16375ZM12.7488 4.39169C12.4145 4.55646 12.4274 4.37421 12.4274 8.9248C12.4274 11.6804 12.4451 13.0892 12.4809 13.1849C12.5409 13.3453 18.4078 19.2431 18.6712 19.4078C19.0877 19.6682 19.6112 19.2567 19.4681 18.7813C19.4485 18.716 18.1079 17.3361 16.4891 15.7148L13.5459 12.767V8.78742C13.5459 4.37452 13.5592 4.55239 13.2165 4.38986C13.0081 4.29099 12.9526 4.29125 12.7488 4.39169Z" fill="#DE596D"/>
</svg>
