<svg width="32" height="32" viewBox="0 0 32 32" fill="none" xmlns="http://www.w3.org/2000/svg">
<path fill-rule="evenodd" clip-rule="evenodd" d="M5.71875 0.087724C5.46562 0.202724 0.148062 5.54497 0.065375 5.76735C0.0206875 5.88772 0 9.97097 0 18.6923C0 29.9658 0.011 31.4626 0.0948125 31.6247C0.300438 32.0224 -0.316 31.9977 9.40625 31.9977C19.2381 31.9977 18.54 32.0289 18.7272 31.5808C18.8419 31.3063 18.7931 31.06 18.5855 30.8649L18.4274 30.7164L9.88562 30.6852L1.34375 30.6539L1.32794 18.6723L1.31219 6.6906L3.77994 6.67229L6.24775 6.65391L6.452 6.44966L6.65625 6.24541L6.67462 3.77779L6.69294 1.31016H14.0028H21.3125V6.4586C21.3125 9.29022 21.33 11.6945 21.3514 11.8015C21.4363 12.2262 21.8875 12.4616 22.2693 12.2804C22.6774 12.0867 22.6562 12.4208 22.6562 6.16004C22.6562 0.761786 22.6504 0.457724 22.5427 0.299224C22.4803 0.207224 22.3426 0.101787 22.2366 0.064849C22.1029 0.018224 19.5735 -0.00158848 13.9751 9.90181e-05C7.3015 0.00216152 5.87381 0.0172865 5.71875 0.087724ZM5.3125 3.81016V5.31016H3.79737H2.28225L3.78125 3.81016C4.60569 2.98516 5.2875 2.31016 5.29637 2.31016C5.30525 2.31016 5.3125 2.98516 5.3125 3.81016ZM5.71875 8.08379C5.32131 8.25816 5.23669 8.80647 5.55769 9.12747L5.74038 9.31016H11.3341H16.9279L17.1202 9.11785C17.3835 8.85454 17.3873 8.52079 17.1301 8.23304L16.9478 8.02891L11.427 8.01522C6.975 8.00416 5.86994 8.01741 5.71875 8.08379ZM5.71875 12.0838C5.32131 12.2582 5.23669 12.8065 5.55769 13.1275L5.74038 13.3102H11.3341H16.9279L17.1202 13.1178C17.3835 12.8545 17.3873 12.5208 17.1301 12.233L16.9478 12.0289L11.427 12.0152C6.975 12.0042 5.86994 12.0174 5.71875 12.0838ZM28.0577 13.3803C26.9867 13.5045 26.0987 13.9474 25.2901 14.7606C24.9856 15.0668 24.7288 15.3087 24.7196 15.2982C24.7104 15.2875 24.6115 15.068 24.4998 14.8102C24.2257 14.177 23.8345 13.5138 23.6894 13.4362C23.6241 13.4013 23.4542 13.3727 23.3118 13.3727C23.1089 13.3727 23.0133 13.4122 22.8702 13.5553C22.6009 13.8246 22.6255 14.061 22.9989 14.7932C23.3699 15.5209 23.716 16.5505 23.8494 17.3238C23.9027 17.6323 23.9373 17.893 23.9263 17.903C23.9153 17.913 23.6812 17.8304 23.4062 17.7192C22.7016 17.4345 22.3187 17.3558 21.6642 17.3611C19.9013 17.3753 18.5866 18.4289 17.8296 20.4343C16.9969 22.6402 17.2547 25.6033 18.5011 28.1539C19.0124 29.2003 19.4309 29.8071 20.1228 30.505C21.1845 31.5759 22.0117 31.9619 23.25 31.9641C23.7675 31.965 23.8909 31.9432 24.2107 31.7939C24.4125 31.6997 24.6129 31.6227 24.656 31.6227C24.6992 31.6227 24.8997 31.699 25.1016 31.7923C25.4284 31.9433 25.5408 31.9617 26.125 31.96C26.7921 31.9581 27.0979 31.8944 27.7036 31.631C29.3407 30.9191 30.9336 28.6518 31.6173 26.0602C31.9924 24.6377 32.0807 23.4661 31.9096 22.1804C31.5596 19.5517 30.2737 17.834 28.3594 17.4381L28 17.3638L28.2458 17.0713C28.8883 16.3068 29.2381 15.424 29.2956 14.4222C29.3242 13.9235 29.3121 13.7876 29.2277 13.6588C29.0352 13.365 28.758 13.2991 28.0577 13.3803ZM27.9164 14.8375C27.8974 14.8869 27.8529 15.0352 27.8174 15.1668C27.7147 15.5483 27.3394 16.1285 26.984 16.4552C26.6679 16.7458 25.9732 17.1263 25.6018 17.2123C25.4254 17.2532 25.4231 17.2502 25.4636 17.0347C25.5851 16.3867 26.1494 15.5955 26.7691 15.2044C27.0257 15.0423 27.718 14.756 27.8661 14.7507C27.9147 14.749 27.9361 14.786 27.9164 14.8375ZM5.71875 16.0843C5.32137 16.2575 5.23662 16.8064 5.55769 17.1275L5.74038 17.3102H10.6466H15.5529L15.7431 17.1502C15.9827 16.9485 16.0483 16.6474 15.9108 16.3813C15.7039 15.9813 15.9251 15.9974 10.675 16.0001C6.88894 16.002 5.86763 16.0194 5.71875 16.0843ZM23.1656 19.0542C24.5166 19.5868 24.8523 19.5858 26.1759 19.0443C26.9469 18.7288 26.986 18.7199 27.5938 18.7182C28.1452 18.7166 28.2614 18.7364 28.5811 18.8862C29.9114 19.5095 30.6352 21.1224 30.6365 23.4664C30.6371 24.4822 30.5094 25.2364 30.1604 26.2793C29.4494 28.4041 28.1558 30.0699 26.8529 30.5385C26.4244 30.6925 25.8409 30.6632 25.4175 30.4662C24.95 30.2487 24.4811 30.2385 24 30.4352C23.4846 30.6459 23.2683 30.6815 22.8821 30.6192C21.4483 30.3878 19.9709 28.6687 19.1849 26.3172C18.8321 25.262 18.7407 24.7668 18.7042 23.7147C18.6413 21.9005 19.0515 20.4418 19.8794 19.536C20.4595 18.9013 20.9894 18.6743 21.8125 18.7082C22.2769 18.7273 22.4471 18.7708 23.1656 19.0542ZM5.71875 20.0843C5.32137 20.2575 5.23662 20.8064 5.55769 21.1275L5.74038 21.3102H10H14.2596L14.4423 21.1275C14.7807 20.789 14.6698 20.2158 14.2366 20.0648C13.9331 19.959 5.96431 19.9772 5.71875 20.0843ZM5.71875 24.0843C5.32137 24.2575 5.23662 24.8064 5.55769 25.1275L5.74038 25.3102H10H14.2596L14.4423 25.1275C14.7807 24.789 14.6698 24.2158 14.2366 24.0648C13.9331 23.959 5.96431 23.9772 5.71875 24.0843Z" fill="#DE596D"/>
</svg>
