<svg width="24" height="24" viewBox="0 0 24 24" fill="none" xmlns="http://www.w3.org/2000/svg">
<path fill-rule="evenodd" clip-rule="evenodd" d="M10.6875 4.33227C7.73133 4.7817 4.75472 6.46452 1.94531 9.27453C1.02314 10.1969 0.325781 11.0067 0.169125 11.3372C0.0671719 11.5521 0.046875 11.6612 0.046875 11.9934C0.046875 12.5248 0.15825 12.7532 0.754172 13.4439C2.808 15.8241 5.49173 17.8764 7.82391 18.8501C9.43683 19.5234 10.6555 19.7578 12.3214 19.7152C13.9105 19.6745 15.1685 19.3615 16.783 18.6048C18.6587 17.7258 20.9143 16.0123 22.6477 14.1497C23.875 12.8308 24 12.6315 24 11.9934C24 11.4473 23.8917 11.2345 23.2248 10.47C21.4253 8.40697 19.3259 6.70649 17.2706 5.64725C15.8647 4.9227 14.6563 4.51836 13.3359 4.33072C12.7203 4.24325 11.2675 4.24409 10.6875 4.33227ZM12.9254 6.90514C13.6095 7.02711 14.2912 7.3017 14.9062 7.7031C15.2685 7.93949 16.0774 8.74836 16.3138 9.11061C16.8994 10.008 17.1748 10.9207 17.178 11.9756C17.1833 13.6486 16.4431 15.1289 15.0938 16.1439C14.2039 16.8133 13.1738 17.1497 12.0139 17.1497C9.15309 17.1497 6.86025 14.8548 6.86883 12C6.873 10.6129 7.33697 9.44352 8.27334 8.46003C8.83055 7.8748 9.42445 7.46614 10.114 7.19342C10.4235 7.07099 11.015 6.9096 11.2969 6.87064C11.6269 6.82503 12.5906 6.84547 12.9254 6.90514ZM11.4862 8.33938C10.5791 8.48145 9.73458 8.9623 9.16233 9.66256C8.87203 10.0178 8.53936 10.6828 8.43019 11.1262C8.3137 11.5993 8.32383 12.466 8.45138 12.9377C8.80116 14.2309 9.80105 15.2179 11.1328 15.5846C11.5895 15.7103 12.4931 15.7004 12.975 15.5644C14.9338 15.0114 16.0724 13.0816 15.6073 11.1028C15.5095 10.6865 15.1725 10.0149 14.8845 9.66256C14.4084 9.07995 13.6105 8.57272 12.9141 8.40992C12.5188 8.31749 11.84 8.28397 11.4862 8.33938Z" fill="white"/>
</svg>
