<svg width="26" height="32" viewBox="0 0 26 32" fill="none" xmlns="http://www.w3.org/2000/svg">
<path fill-rule="evenodd" clip-rule="evenodd" d="M10.0321 0.0567828C7.7879 0.388533 4.94534 2.50835 2.98515 5.31191C1.92509 6.82803 1.21422 8.38572 0.97403 9.71841C0.93778 9.91972 0.881655 10.3657 0.84928 10.7095C0.816967 11.0532 0.746092 11.5718 0.691842 11.862C0.461217 13.0957 0.305405 15.5325 0.40628 16.3282C0.577092 17.6753 1.86415 20.4485 3.0489 22.022C3.39897 22.487 3.43959 22.5767 3.62903 23.3032C4.06803 24.9875 4.62853 26.3657 5.20047 27.1673C7.72641 30.7075 10.4488 32.314 13.2593 31.9231C15.3542 31.6317 17.3221 30.2473 19.264 27.6987C19.5807 27.2832 19.9423 26.7681 20.0677 26.5542C20.5993 25.6473 21.1998 24.0217 21.3755 23.014C21.4281 22.7123 21.506 22.419 21.5485 22.3622C21.591 22.3053 21.782 22.0509 21.9728 21.7967C22.6029 20.9575 23.0873 20.0888 24.1533 17.8864C25.2667 15.5862 25.3972 15.267 25.5671 14.4284C25.706 13.7425 25.6608 12.3513 25.4797 11.7361C24.7927 9.4041 22.8862 7.26072 19.3303 4.82272C18.8813 4.51484 18.8507 4.47853 18.7252 4.10397C18.402 3.13972 17.6424 2.17091 16.7273 1.55572C16.2122 1.20941 15.3338 0.79472 14.6247 0.563158C13.2477 0.113283 11.1868 -0.113905 10.0321 0.0567828ZM12.0008 1.39897C13.1548 1.48378 14.4373 1.83697 15.4037 2.3361C17.0631 3.19316 17.7951 4.45485 17.5966 6.11572C17.4278 7.5281 16.8655 8.68616 15.7508 9.91735C15.1615 10.5683 13.7606 11.6363 12.4383 12.4425C11.4496 13.0454 9.78553 13.9937 9.06284 14.366C7.18522 15.3333 5.54241 16.5818 4.71722 17.6687C4.31828 18.1941 3.89215 19.0631 3.71653 19.7095C3.64184 19.9845 3.56859 20.2499 3.55384 20.2993C3.49365 20.5008 2.38228 18.3087 1.98747 17.2095C1.77834 16.6275 1.76091 16.5224 1.73403 15.6823C1.69466 14.4544 1.90053 12.1575 2.09597 11.6433C2.15522 11.4875 5.32047 9.60728 7.53209 8.41416C9.12034 7.55735 12.8774 6.01285 14.2695 5.64447C14.9322 5.4691 15.0787 5.36947 15.1521 5.04428C15.2373 4.66603 15.0358 4.33303 14.6815 4.26653C14.1251 4.16216 12.0371 4.89178 8.90709 6.28422C7.2884 7.00428 6.45184 7.4491 3.74053 9.03128C3.01297 9.45585 2.39897 9.80322 2.37615 9.80322C2.25503 9.80322 2.67115 8.57616 3.06509 7.77172C4.05665 5.74685 5.75497 3.78885 7.61159 2.53003C8.34359 2.03372 8.80309 1.79572 9.44553 1.5801C10.2304 1.3166 10.5613 1.29316 12.0008 1.39897ZM19.8674 6.85916C22.1484 8.57747 23.545 10.2071 24.0822 11.7775C24.5422 13.1217 24.403 14.3775 23.6212 15.9372C23.4378 16.303 23.0308 17.1467 22.7168 17.8122C22.0824 19.1564 21.4057 20.3943 21.3458 20.3202C21.3243 20.2937 21.2576 20.0794 21.1976 19.844C21.027 19.1749 20.6453 18.3564 20.2435 17.7983C19.4316 16.6703 17.7883 15.3852 15.9696 14.456C15.3398 14.1342 13.9121 13.3264 13.8227 13.2412C13.7934 13.2133 13.9762 13.0508 14.2289 12.8799C16.0029 11.6804 17.3485 10.301 18.1445 8.86572C18.4113 8.38453 18.7622 7.33722 18.8558 6.74216C18.8992 6.46635 18.9598 6.24072 18.9905 6.24072C19.0213 6.24072 19.4158 6.51903 19.8674 6.85916ZM13.4696 14.5966C14.0024 14.9045 14.7758 15.3337 15.1883 15.5504C16.5982 16.2912 17.9508 17.2246 18.6029 17.9067C19.4549 18.7978 19.8675 19.6606 20.0625 20.9595C20.2403 22.1435 20.167 22.7932 19.7072 24.1076C19.3389 25.1603 18.923 25.9455 18.2895 26.7838C16.278 29.4462 14.4827 30.6245 12.4383 30.6245C10.8597 30.6245 9.49959 29.9513 7.98397 28.4196C7.05084 27.4765 6.28247 26.4662 5.87547 25.647C5.51191 24.915 5.07759 23.6637 4.83953 22.6617C4.70259 22.0853 4.69866 22.0107 4.76866 21.318C5.02653 18.7663 6.24822 17.366 9.90709 15.4278C10.4055 15.1638 11.1782 14.7346 11.624 14.4741C12.0699 14.2135 12.4496 14.0086 12.4678 14.0187C12.486 14.0287 12.9368 14.2888 13.4696 14.5966Z" fill="#DE596D"/>
</svg>
