<svg width="26" height="27" viewBox="0 0 26 27" fill="none" xmlns="http://www.w3.org/2000/svg">
<path fill-rule="evenodd" clip-rule="evenodd" d="M13.5722 2.37586L11.8011 4.14193L11.9202 4.29434C12.2693 4.74117 12.7281 5.50119 12.9265 5.96115C13.3145 6.86133 13.4446 7.51272 13.4812 8.73879L13.513 9.80813L13.6664 9.80936C13.9001 9.81123 14.5782 10.068 14.9771 10.3056L15.3338 10.5181L15.8287 10.0313C16.1009 9.76354 16.4739 9.34436 16.6576 9.09978C18.212 7.03014 18.2189 4.09717 16.6742 1.99881C16.4167 1.649 15.4466 0.608497 15.3787 0.609376C15.3592 0.60961 14.5462 1.40455 13.5722 2.37586ZM5.54236 5.33274C5.56357 7.94977 5.56439 7.96512 5.71574 8.51906C6.17447 10.1977 7.22822 11.5372 8.71035 12.3257C9.36883 12.676 9.36455 12.6761 9.48098 12.3146C9.71043 11.6026 10.2143 10.9202 10.8406 10.4732C11.2666 10.1692 11.9287 9.87873 12.3167 9.82553L12.5743 9.79025L12.5447 8.78842C12.5203 7.96119 12.4884 7.68457 12.3618 7.2007C11.8158 5.11395 10.1635 3.46178 8.07754 2.91662C7.59783 2.79129 7.31295 2.75807 6.50635 2.73328L5.52104 2.70311L5.54236 5.33274ZM18.5989 2.78479C18.4238 2.81385 18.2747 2.84373 18.2678 2.85117C18.2608 2.85867 18.333 3.09727 18.4283 3.38145C18.5236 3.66563 18.6442 4.1666 18.6961 4.49473L18.7907 5.09133L19.6597 5.07375L20.5287 5.05617V3.88723V2.71828L19.723 2.72514C19.28 2.72889 18.7741 2.75572 18.5989 2.78479ZM2.24781 6.7466C2.24811 7.38416 2.31648 8.13885 2.37965 8.20207C2.3899 8.21227 2.5757 8.15619 2.79256 8.0775C3.14043 7.95123 3.66871 7.83393 4.37148 7.72688L4.59121 7.69342V6.8465V5.99953H3.41934H2.24746L2.24781 6.7466ZM18.8474 6.04582C18.8089 6.07031 18.7485 6.27428 18.7133 6.49904C18.6132 7.13795 18.4809 7.62926 18.2715 8.14049C17.892 9.06686 17.4415 9.72287 16.5549 10.6397L16.0057 11.2078L16.2186 11.5526C16.4595 11.9429 16.717 12.6247 16.7189 12.877L16.7201 13.0455L17.7309 13.0157C18.9566 12.9796 19.6043 12.8329 20.4994 12.3884C22.0568 11.615 23.1676 10.2388 23.6169 8.52604C23.7364 8.07064 23.7705 7.77398 23.7948 6.98098L23.825 5.99953L21.3712 6.00041C20.0216 6.00094 18.8859 6.02133 18.8474 6.04582ZM3.99004 8.72766C2.68504 8.96736 1.62707 9.55488 0.577832 10.6226L0.109375 11.0994L1.9075 12.8947C3.69889 14.6834 3.70615 14.6897 3.8408 14.5911C5.1441 13.6368 6.20734 13.2028 7.59748 13.058L7.99627 13.0164L7.59748 12.7509C7.37811 12.605 6.94486 12.2324 6.63479 11.9232C5.81219 11.1029 5.28607 10.2475 4.93744 9.16359C4.75117 8.58463 4.75621 8.58691 3.99004 8.72766ZM12.3321 10.7797C10.8465 11.1792 9.92734 12.7175 10.3059 14.1709C10.6979 15.6759 12.2339 16.6042 13.7001 16.2223C15.2007 15.8314 16.1333 14.2941 15.7538 12.837C15.3582 11.3183 13.8041 10.3838 12.3321 10.7797ZM22.0748 12.5088C21.1339 13.2565 19.8927 13.7621 18.6098 13.9202L18.0677 13.9871L18.4633 14.2503C18.6808 14.3951 19.1126 14.7666 19.4226 15.0759C20.2451 15.896 20.7709 16.7509 21.1202 17.8355C21.2188 18.1419 21.315 18.3405 21.3702 18.3519C21.5145 18.3814 22.4969 18.1962 22.8909 18.0653C23.8262 17.7543 24.6602 17.2103 25.479 16.377L25.9469 15.9009L24.2192 14.1692C23.269 13.2168 22.4483 12.4134 22.3954 12.3839C22.3246 12.3444 22.2402 12.3772 22.0748 12.5088ZM7.20772 14.0619C4.69369 14.5161 2.76988 16.4466 2.34209 18.9444C2.28859 19.2564 2.24746 19.8237 2.24746 20.2481V20.9995L4.69375 20.9987C6.03924 20.9981 7.17133 20.9779 7.20953 20.9535C7.24774 20.9293 7.31928 20.6592 7.3685 20.3534C7.6116 18.8423 8.22484 17.6798 9.44459 16.4173L10.0508 15.7898L9.83834 15.4457C9.6008 15.0608 9.34041 14.3751 9.33854 14.1294L9.33731 13.9683L8.50234 13.9736C8.04309 13.9764 7.46055 14.0162 7.20772 14.0619ZM16.5696 14.7052C16.4536 15.0741 16.1709 15.5684 15.8566 15.952C15.4063 16.5015 14.4057 17.0824 13.756 17.1714L13.4832 17.2088L13.5127 18.2106C13.5486 19.4266 13.6965 20.0773 14.1399 20.9702C14.9133 22.5277 16.2895 23.6384 18.0022 24.0877C18.4582 24.2073 18.7541 24.2413 19.5515 24.2658L20.5373 24.296L20.515 21.6663C20.4928 19.0542 20.4916 19.0329 20.3411 18.48C19.8678 16.7415 18.742 15.3603 17.1466 14.5611C16.9461 14.4606 16.7574 14.3784 16.7273 14.3784C16.6971 14.3784 16.6262 14.5254 16.5696 14.7052ZM10.0326 17.1813C9.02969 18.2255 8.52338 19.1762 8.30641 20.4226C8.1809 21.1438 8.22098 22.2377 8.39846 22.9331C8.67145 24.0028 9.3393 25.0936 10.2982 26.036L10.6832 26.4143L12.2167 24.8934C13.0601 24.057 13.8632 23.2528 14.0013 23.1065L14.2523 22.8404L14.0461 22.5797C13.4919 21.8794 13.0111 20.9152 12.7932 20.0671C12.6196 19.3918 12.5624 18.8812 12.5611 17.9966L12.56 17.1909L12.3988 17.1897C12.1552 17.1878 11.4687 16.9282 11.091 16.6951C10.9063 16.5811 10.7424 16.4878 10.7269 16.4878C10.7113 16.4878 10.3989 16.7999 10.0326 17.1813ZM23.2533 18.9296C22.8889 19.0536 22.3547 19.1704 21.6859 19.2722L21.4662 19.3056V20.1526V20.9995H22.6456H23.825L23.7958 20.0181C23.7798 19.4783 23.7435 18.9812 23.715 18.9134L23.6635 18.7901L23.2533 18.9296ZM6.39297 21.924L5.52871 21.9401V23.1105V24.2808L6.27578 24.2803C6.87555 24.28 7.73869 24.2033 7.79201 24.1455C7.7977 24.1393 7.72539 23.9047 7.63123 23.6239C7.53707 23.3433 7.41443 22.8423 7.35865 22.5107L7.25723 21.9077L6.39297 21.924Z" fill="#DE596D"/>
</svg>
