<svg width="32" height="33" viewBox="0 0 32 33" fill="none" xmlns="http://www.w3.org/2000/svg">
<path fill-rule="evenodd" clip-rule="evenodd" d="M21.8086 0.75978C21.1156 1.51041 19.0294 4.29466 18.9584 4.56372C18.8719 4.89141 19.269 5.25403 19.5835 5.13441C19.6701 5.10147 19.8508 4.92541 19.985 4.74316C21.3428 2.89903 22.164 1.84928 22.2491 1.84928C22.3189 1.84928 23.1758 2.92234 23.9459 3.97428C25.5525 6.16872 26.5804 7.94797 27.0396 9.32909C27.2723 10.0288 27.2856 11.029 27.0721 11.7825C26.3573 14.3057 23.8586 15.8949 21.3584 15.4165C19.1039 14.9852 17.4269 13.0855 17.2713 10.7868C17.2281 10.149 17.3426 9.57559 17.6829 8.72578C17.7886 8.46197 17.875 8.16872 17.875 8.07422C17.875 7.73184 17.3861 7.49903 17.1076 7.70866C16.9641 7.81659 16.6573 8.51772 16.4658 9.17528C15.8452 11.3052 16.7434 13.8421 18.6235 15.2699C19.1468 15.6672 20.1423 16.1507 20.7813 16.3178C23.4524 17.0162 26.3269 15.6978 27.5941 13.193C27.9795 12.4312 28.25 11.3313 28.25 10.526C28.25 9.20153 27.4668 7.38422 25.8436 4.94216C24.9274 3.56384 23.1483 1.22053 22.5819 0.646155C22.3569 0.418093 22.0875 0.457655 21.8086 0.75978ZM18 6.00553C17.7194 6.28616 17.9206 6.81803 18.3074 6.81803C18.5839 6.81803 18.6936 6.75534 18.781 6.54747C18.8753 6.32328 18.8004 6.03684 18.6226 5.94172C18.4339 5.84072 18.1341 5.87147 18 6.00553ZM25.5313 10.0152C25.3281 10.1263 25.25 10.2648 25.25 10.5144C25.25 11.3005 24.9034 12.0538 24.2404 12.7084C23.9602 12.985 23.75 13.245 23.75 13.3148C23.75 13.5301 23.886 13.7449 24.0706 13.8214C24.3347 13.9308 24.5672 13.8096 25.0726 13.2991C25.757 12.608 26.2498 11.4618 26.2469 10.568C26.2459 10.2671 26.1749 10.1317 25.9573 10.0157C25.7899 9.92659 25.6934 9.92647 25.5313 10.0152ZM21.9034 13.659C21.5934 13.969 21.8131 14.5055 22.25 14.5055C22.5069 14.5055 22.75 14.2625 22.75 14.0055C22.75 13.7486 22.5069 13.5055 22.25 13.5055C22.1283 13.5055 22.0001 13.5622 21.9034 13.659ZM5.375 15.862C4.13056 15.9986 3.06313 16.2387 1.51813 16.7294C0.376875 17.0919 0.25 17.1712 0.25 17.5223C0.25 17.7339 0.498938 18.0055 0.692875 18.0055C0.76775 18.0055 1.29638 17.8537 1.86763 17.6681C3.09775 17.2685 4.05688 17.0458 5.125 16.912C6.01375 16.8007 6.15631 16.7475 6.24456 16.4942C6.32169 16.273 6.24931 16.0559 6.05256 15.9181C5.91306 15.8204 5.82275 15.8129 5.375 15.862ZM7.44838 15.9627C7.02894 16.4092 7.599 17.071 8.07831 16.694C8.28525 16.5312 8.339 16.3005 8.22238 16.0751C8.06769 15.7759 7.67719 15.7192 7.44838 15.9627ZM9.58481 16.1315C9.41075 16.1998 9.25 16.4324 9.25 16.616C9.25 16.8693 9.49406 17.0317 10.1563 17.2191C11.3956 17.5697 12.2892 18.0312 13.4625 18.9267C15.5229 20.4992 15.5322 20.5055 15.7666 20.5055C16.151 20.5055 16.3745 20.0861 16.1561 19.7743C16.1044 19.7005 15.6246 19.3076 15.0898 18.901C14.555 18.4944 13.9478 18.032 13.7404 17.8734C12.8861 17.2198 11.6568 16.6109 10.5625 16.2992C9.814 16.086 9.7355 16.0725 9.58481 16.1315ZM23.7813 17.923C23.3392 18.0221 22.9933 18.1883 22.5731 18.5037C22.074 18.8782 19.2884 20.8745 19.1256 20.9744C19.0743 21.0058 18.4274 21.1333 17.6881 21.2578L16.3438 21.484L15.5427 21.086C12.6073 19.6274 9.92013 18.6444 8.55256 18.5289C8.09513 18.4903 8.06663 18.4957 7.91194 18.6504C7.70488 18.8575 7.69706 19.1458 7.89313 19.3418C8.00656 19.4553 8.133 19.4932 8.5025 19.5248C9.70344 19.6272 12.4009 20.6402 15.1563 22.0233L16.1563 22.5253L17.7981 22.2561L19.4399 21.9868L21.1419 20.7715C22.0779 20.1031 22.9862 19.447 23.1603 19.3134C23.5181 19.039 23.9116 18.8805 24.235 18.8805C24.4719 18.8805 24.9375 19.0015 24.9375 19.0631C24.9375 19.1753 22.9506 21.0393 21.5938 22.2001L20.0313 23.5368L17.7528 24.0458C15.2866 24.5968 15.25 24.611 15.25 25.0153C15.25 25.238 15.4971 25.5062 15.7003 25.5039C15.7792 25.503 16.8876 25.2693 18.1634 24.9847L20.4831 24.467L22.3821 22.8358C23.4266 21.9387 24.7242 20.7572 25.2656 20.2101C26.138 19.3286 26.25 19.1919 26.25 19.0085C26.25 18.6485 25.6169 18.162 24.9088 17.9775C24.5558 17.8857 24.056 17.8615 23.7813 17.923ZM27.1205 19.8835C26.5789 20.012 26.1857 20.2028 26.0929 20.3823C25.9593 20.6407 25.9763 20.7414 26.1895 20.9547C26.4033 21.1684 26.4713 21.1674 27.0938 20.9412C27.6616 20.7348 28.3425 20.7838 28.9139 21.0722C29.1479 21.1902 29.347 21.3149 29.3564 21.3493C29.3658 21.3837 27.7778 22.2595 25.8274 23.2955C22.9941 24.8005 21.7648 25.4131 19.7124 26.3424L17.1436 27.5055H15.7575H14.3714L9.118 25.0055L3.86456 22.5055H2.21069H0.556813L0.403438 22.659C0.200438 22.8619 0.200438 23.1492 0.403438 23.3521L0.556813 23.5055H2.09669H3.63663L8.88744 26.0055L14.1383 28.5055H14.9051H15.6718L21.9219 30.5055C25.3595 31.6055 28.2286 32.5055 28.2978 32.5055C28.5046 32.5055 28.6809 32.3082 28.8129 31.929C29.0611 31.216 28.9194 30.307 28.4633 29.6856C28.0774 29.16 27.7303 28.9586 26.5503 28.5759C25.6926 28.2977 25.5462 28.2979 25.3501 28.578C25.0656 28.9841 25.3002 29.2203 26.3286 29.563C27.2263 29.8622 27.4497 29.9917 27.7124 30.3655C27.8561 30.5699 27.9046 30.7173 27.9261 31.015C27.9516 31.368 27.9444 31.3965 27.8399 31.3564C27.7431 31.3193 18.6408 28.3957 18.1875 28.2562C18.0414 28.2112 18.0536 28.1978 18.375 28.0508C18.5641 27.9643 19.6768 27.4579 20.8477 26.9253C22.4306 26.2055 23.9454 25.4409 26.7539 23.9444C28.8314 22.8374 30.5805 21.8748 30.6406 21.8054C30.8678 21.5433 30.7889 21.3292 30.282 20.8321C29.7764 20.3362 29.2045 20.0197 28.5751 19.8876C28.1953 19.8078 27.4484 19.8058 27.1205 19.8835ZM27.8973 24.005C27.7268 24.0738 27.5625 24.3067 27.5625 24.4798C27.5625 24.5534 27.6207 24.6877 27.6918 24.778C27.8166 24.9367 27.8422 24.9421 28.4262 24.9332C29.1676 24.9218 29.6093 25.0388 30.0524 25.364C30.2288 25.4934 30.3735 25.6185 30.3741 25.642C30.3754 25.7022 30.5371 25.6618 26.3127 26.6563C22.1628 27.6333 22.25 27.6042 22.25 28.0153C22.25 28.2381 22.4973 28.5063 22.7003 28.5037C22.7792 28.5027 24.7974 28.0414 27.1851 27.4785C31.8643 26.3755 31.75 26.4123 31.75 26.0083C31.75 25.9143 31.6426 25.6713 31.5113 25.4683C31.0749 24.7938 30.3811 24.2855 29.5668 24.0438C29.2003 23.935 28.1323 23.9102 27.8973 24.005Z" fill="#DE596D"/>
</svg>
