<svg width="32" height="32" viewBox="0 0 32 32" fill="none" xmlns="http://www.w3.org/2000/svg">
<path fill-rule="evenodd" clip-rule="evenodd" d="M14.4778 0.0371098C9.05047 0.560985 4.20284 3.84948 1.74634 8.67386C0.877594 10.3801 0.364281 12.0253 0.0834061 14.0036C-0.0410939 14.8809 -0.0230314 17.1505 0.116344 18.1286C0.363844 19.8656 0.875969 21.5115 1.66084 23.0927C3.21803 26.2297 5.70566 28.717 8.84897 30.28C13.9445 32.8138 19.9666 32.4654 24.7193 29.3619C26.5777 28.1484 28.3388 26.3494 29.5412 24.4365C29.9981 23.7094 30.688 22.296 31.0014 21.4452C31.3172 20.5877 31.6853 19.0995 31.8219 18.1286C31.9603 17.1452 31.979 14.87 31.8558 14.0036C31.4868 11.4082 30.6638 9.19855 29.2973 7.13492C28.7162 6.2573 28.1358 5.54923 27.3273 4.73142C24.8345 2.21017 21.7337 0.646485 18.1881 0.122672C17.4235 0.00973482 15.2748 -0.0398277 14.4778 0.0371098ZM20.4142 8.11642C22.1569 8.64005 23.4062 9.92855 23.85 11.6599C23.9795 12.1652 23.9795 19.7795 23.85 20.2848C23.3928 22.0685 22.0655 23.3958 20.2818 23.853C19.7765 23.9825 12.1622 23.9825 11.6569 23.853C9.91128 23.4056 8.60666 22.1302 8.10922 20.3848C8.01109 20.0405 8.00059 19.6134 8.00059 15.9724C8.00059 11.5657 7.99147 11.6907 8.37697 10.819C8.96803 9.48255 10.308 8.37367 11.6568 8.10467C11.8459 8.06692 12.0568 8.0243 12.1256 8.00992C12.1943 7.99555 14.0084 7.98992 16.1568 7.99736C19.6167 8.00936 20.1032 8.02298 20.4142 8.11642ZM11.9234 9.69374C11.3856 9.83855 10.9628 10.091 10.5254 10.5284C10.0782 10.9756 9.83409 11.3907 9.68759 11.9532C9.54741 12.4912 9.54959 19.4617 9.69003 20.001C9.83809 20.5694 10.1337 21.0614 10.5754 21.4745C11.0198 21.8904 11.4161 22.115 11.9502 22.2541C12.4882 22.3943 19.4587 22.3921 19.998 22.2517C20.5663 22.1036 21.0583 21.808 21.4715 21.3663C21.8873 20.9219 22.112 20.5256 22.2511 19.9915C22.3893 19.461 22.3893 12.4837 22.2511 11.9532C22.112 11.4191 21.8873 11.0229 21.4715 10.5784C21.0583 10.1367 20.5663 9.84111 19.998 9.69305C19.476 9.55711 12.4285 9.55767 11.9234 9.69374ZM20.3784 10.8546C20.7189 10.9403 21.0683 11.3011 21.1302 11.6309C21.2242 12.132 20.8405 12.733 20.3703 12.8212C19.8518 12.9185 19.4087 12.696 19.2054 12.2367C18.9628 11.6883 19.2334 11.0837 19.8131 10.8787C20.1213 10.7697 20.053 10.7727 20.3784 10.8546ZM16.8716 11.9414C18.0183 12.1843 19.124 13.0456 19.6448 14.1017C19.9956 14.8132 20.1151 15.3911 20.0768 16.1913C20.0247 17.2804 19.6536 18.0994 18.8443 18.9115C18.0688 19.6898 17.0849 20.0945 15.9637 20.0964C14.8353 20.0984 13.8867 19.7002 13.0619 18.8786C12.243 18.0628 11.8443 17.1112 11.8443 15.9724C11.8443 14.8347 12.2425 13.8836 13.0615 13.0645C14.0873 12.0389 15.4438 11.6389 16.8716 11.9414ZM15.0734 13.6224C14.359 13.9218 13.9899 14.2717 13.6715 14.9514C13.5193 15.2762 13.5006 15.388 13.5006 15.9724C13.5006 16.5804 13.5152 16.6595 13.6997 17.0489C13.9486 17.5743 14.3706 17.9935 14.9068 18.2482C15.2807 18.4257 15.3655 18.4411 15.9693 18.4411C16.5769 18.4411 16.6567 18.4264 17.0444 18.2427C17.5772 17.9903 17.9873 17.5802 18.2397 17.0474C18.4233 16.6597 18.4381 16.5799 18.4381 15.9724C18.4381 15.3648 18.4233 15.285 18.2397 14.8973C17.9873 14.3645 17.5772 13.9544 17.0444 13.702C16.6796 13.5292 16.549 13.5014 16.0318 13.4866C15.5194 13.4719 15.3882 13.4905 15.0734 13.6224Z" fill="white"/>
</svg>
