<svg width="32" height="25" viewBox="0 0 32 25" fill="none" xmlns="http://www.w3.org/2000/svg">
<path fill-rule="evenodd" clip-rule="evenodd" d="M15.5235 0.181609C15.0664 0.484797 14.0087 1.45642 13.4282 2.10636C11.8913 3.82705 10.8693 5.65399 10.2823 7.73011C10.0637 8.50292 9.84095 9.7438 9.84095 10.1883C9.84095 10.3547 9.81251 10.5085 9.77776 10.53C9.74301 10.5514 9.53913 10.4621 9.32463 10.3314C8.48451 9.81948 7.25039 9.27755 6.21476 8.9658C4.77532 8.53248 3.4692 8.3498 1.77845 8.3453C0.0186981 8.34061 0.0578856 8.29936 0.0635731 10.1489C0.0688231 11.8781 0.232323 13.0265 0.687573 14.5328C1.37826 16.8178 2.5977 18.812 4.38176 20.574C6.83989 23.0018 9.89295 24.4794 13.3386 24.909C14.3205 25.0314 17.7364 25.0314 18.7183 24.909C23.5808 24.3028 27.8016 21.502 30.2073 17.2851C30.8369 16.1816 31.4251 14.5857 31.7067 13.217C31.9222 12.1694 31.9884 11.4604 31.9929 10.1492C31.9993 8.2998 32.0384 8.34105 30.2784 8.34436C28.5602 8.34761 27.2529 8.53423 25.7784 8.98692C24.7638 9.29842 23.5379 9.84805 22.5574 10.431L22.2425 10.6183L22.1649 9.88642C21.8153 6.58892 20.2136 3.51273 17.5848 1.08967C16.3351 -0.0622655 16.0683 -0.179766 15.5235 0.181609ZM16.9887 2.45142C18.2929 3.74373 19.1765 4.99467 19.8511 6.50374C20.4496 7.84267 20.8259 9.47973 20.8564 10.8765L20.8722 11.5984L20.1001 12.3431C18.4334 13.9507 17.1447 15.895 16.3414 18.0139C16.1883 18.4179 16.0476 18.7483 16.0289 18.7483C16.0102 18.7483 15.9129 18.5304 15.8129 18.2639C14.9258 15.9021 13.6899 14.0096 11.9311 12.3195L11.1534 11.5724V11.1266C11.1534 8.32711 12.3836 5.31567 14.4577 3.03748C14.9198 2.52986 15.9603 1.5608 16.0431 1.5608C16.0688 1.5608 16.4943 1.96155 16.9887 2.45142ZM2.9957 9.78311C6.13401 9.97092 9.45851 11.5849 11.6141 13.967C13.9026 16.496 15.1271 19.4389 15.3177 22.8677L15.3608 23.6435L14.5228 23.6027C10.0424 23.385 5.96839 21.0751 3.52745 17.3684C2.52757 15.85 1.80245 13.8786 1.56364 12.0295C1.45051 11.1534 1.37489 9.84505 1.43207 9.75255C1.46139 9.70511 1.62476 9.69217 1.92407 9.71361C2.17057 9.7313 2.65276 9.76255 2.9957 9.78311ZM30.6082 10.5001C30.5188 15.4857 27.6909 19.8783 23.1222 22.128C21.3034 23.0237 19.4807 23.5026 17.5117 23.6023L16.6961 23.6435L16.7397 22.8678C16.8276 21.3059 17.0751 20.0574 17.5638 18.7089C19.0922 14.4924 22.5439 11.2663 26.6796 10.1889C27.7181 9.91836 28.4585 9.8033 29.4972 9.75098C30.0128 9.72498 30.4769 9.70755 30.5284 9.71223C30.6071 9.71936 30.6199 9.84592 30.6082 10.5001Z" fill="#DE596D"/>
</svg>
