<svg width="20" height="24" viewBox="0 0 20 24" fill="none" xmlns="http://www.w3.org/2000/svg">
<path fill-rule="evenodd" clip-rule="evenodd" d="M0.871502 0.138387C0.583443 0.25172 0.405718 0.525671 0.405718 0.856242C0.405718 1.10461 0.520429 1.31411 0.746638 1.47903C0.867496 1.56714 0.950258 1.57593 1.7829 1.58893L2.68783 1.60312L2.68862 3.92334C2.68951 6.43385 2.70357 6.61007 2.94445 7.12717C3.01054 7.26897 3.14695 7.4923 3.24769 7.62339C3.34983 7.75636 4.263 8.57075 5.313 9.46529C7.40728 11.2495 7.43881 11.2842 7.43788 11.8025C7.43695 12.3304 7.42428 12.3444 5.33419 14.1244C4.29821 15.0067 3.38276 15.8088 3.29985 15.9067C3.21695 16.0046 3.07653 16.229 2.98776 16.4052C2.70152 16.9734 2.68955 17.1047 2.68862 19.6867L2.68783 22.0069L1.7829 22.0211C0.950258 22.0341 0.867496 22.0429 0.746638 22.131C0.284254 22.4681 0.284347 23.0675 0.746778 23.4042L0.878302 23.5H9.9999H19.1215L19.253 23.4042C19.7155 23.0675 19.7155 22.4681 19.2532 22.131C19.1323 22.0429 19.0495 22.0341 18.2169 22.0211L17.312 22.0069L17.3112 19.8698C17.3103 17.5612 17.2934 17.3601 17.0577 16.8541C16.9929 16.715 16.8616 16.4964 16.7659 16.3682C16.6658 16.2343 15.7202 15.3862 14.5417 14.3736C13.4141 13.4046 12.4579 12.5694 12.4167 12.5174C12.0766 12.0885 12.083 11.4913 12.4323 11.0698C12.4649 11.0304 13.4146 10.2049 14.5427 9.23519C15.7124 8.22974 16.6682 7.37256 16.7669 7.24046C16.8621 7.11302 16.9929 6.89501 17.0577 6.75595C17.2934 6.24998 17.3103 6.04885 17.3112 3.74025L17.312 1.60312L18.2169 1.58893C19.0495 1.57593 19.1323 1.56714 19.2532 1.47903C19.7155 1.14196 19.7155 0.542561 19.253 0.20581L19.1215 0.110053L10.0547 0.101311C4.09398 0.0955891 0.948022 0.108314 0.871502 0.138387ZM15.7651 3.78332L15.7518 5.96898L15.6349 6.17496C15.548 6.32793 15.0089 6.81893 13.539 8.08345C12.4507 9.01988 11.4515 9.8999 11.3187 10.0391C10.9083 10.4694 10.607 11.217 10.607 11.805C10.607 12.4089 10.9106 13.147 11.3429 13.5946C11.488 13.7447 12.4759 14.6136 13.5382 15.5254C14.6006 16.4373 15.5173 17.253 15.5753 17.3381C15.6334 17.4233 15.702 17.5675 15.7277 17.6585C15.7559 17.7583 15.7746 18.6566 15.7748 19.9183L15.775 22.0124H9.99832H4.22155L4.23482 19.6436C4.24782 17.3125 4.24963 17.272 4.34907 17.0918C4.4825 16.85 4.62558 16.7198 6.48359 15.1496C8.18628 13.7108 8.29055 13.6133 8.55849 13.2113C9.17471 12.2866 9.09157 10.9997 8.3592 10.1257C8.24976 9.99516 7.4267 9.26636 6.53016 8.50617C4.62711 6.89263 4.48334 6.76158 4.34907 6.51825C4.24963 6.33804 4.24782 6.29758 4.23482 3.96642L4.22155 1.59767H10H15.7785L15.7651 3.78332ZM9.71976 12.0224C9.71813 12.5357 9.43548 13.2611 9.06363 13.7061C8.95917 13.8312 8.05368 14.634 7.05146 15.4901C6.04924 16.3463 5.18139 17.1166 5.12289 17.2019L5.01652 17.3571V19.1939C5.01652 20.7823 5.02634 21.0445 5.08903 21.1325L5.1615 21.2342H9.9999H14.8383L14.9108 21.1325C14.9732 21.045 14.9833 20.7997 14.9833 19.377C14.9833 17.7346 14.9825 17.7222 14.8777 17.5677C14.8196 17.4822 13.8923 16.6568 12.8168 15.7334C11.7414 14.81 10.7506 13.9346 10.615 13.788C10.1953 13.3341 9.86363 12.5374 9.86097 11.9767C9.86041 11.855 9.83987 11.805 9.79032 11.805C9.73811 11.805 9.72027 11.86 9.71976 12.0224Z" fill="#DE596D"/>
</svg>
