<svg width="22" height="22" viewBox="0 0 22 22" fill="none" xmlns="http://www.w3.org/2000/svg">
<path fill-rule="evenodd" clip-rule="evenodd" d="M8.13891 0.0665949C3.92217 0.76161 0.690173 4.01329 0.0774058 8.17712C-0.0557051 9.08158 -0.0118759 10.7006 0.168491 11.5409C1.28214 16.7294 6.24253 20.0093 11.4744 19.0165C12.8732 18.751 14.2989 18.0865 15.5402 17.1215L15.9071 16.8362L18.396 19.3304C19.7648 20.7021 20.9579 21.8633 21.0472 21.9108C21.6434 22.2278 22.2277 21.6433 21.9108 21.0468C21.8634 20.9575 20.7027 19.7639 19.3315 18.3944L16.8384 15.9044L17.1236 15.5374C18.9187 13.2264 19.5813 10.4053 18.9922 7.58286C18.2207 3.88644 15.2932 0.96858 11.5428 0.15772C10.8008 -0.00269604 8.87241 -0.0543033 8.13891 0.0665949ZM11.31 1.42408C12.3585 1.6476 13.2643 2.02809 14.1575 2.6202C16.0282 3.86027 17.2845 5.70749 17.7634 7.9224C17.8944 8.52851 17.9425 9.98007 17.8535 10.6483C17.352 14.4175 14.4207 17.35 10.6532 17.8518C9.98527 17.9407 8.53434 17.8927 7.92849 17.7616C4.62783 17.0473 2.13281 14.5587 1.42469 11.2747C1.24751 10.4531 1.23218 8.82504 1.39409 8.0223C2.07239 4.65862 4.70322 2.02894 8.01867 1.40045C8.77543 1.25693 8.8085 1.25465 9.79228 1.27756C10.435 1.29248 10.906 1.33795 11.31 1.42408Z" fill="#DE596D"/>
</svg>
