<svg width="24" height="24" viewBox="0 0 24 24" fill="none" xmlns="http://www.w3.org/2000/svg">
<path fill-rule="evenodd" clip-rule="evenodd" d="M11.6579 0.79855C11.4392 0.931968 11.5904 0.538101 10.0249 5.05082C9.35404 6.98441 8.7838 8.59486 8.75767 8.6296C8.72544 8.67238 7.4096 8.71708 4.6806 8.76812C1.6407 8.8249 0.605288 8.86222 0.464546 8.92005C0.158511 9.0458 0.0189401 9.4205 0.161557 9.73363C0.201635 9.82158 1.54566 10.8758 3.49642 12.3494C6.6807 14.7549 6.76279 14.8219 6.71246 14.9734C6.30611 16.1963 4.4304 22.5399 4.4304 22.6913C4.4304 23.0757 4.76216 23.3566 5.12925 23.2831C5.26578 23.2558 8.07957 21.3407 11.5334 18.9242L11.986 18.6076L12.2659 18.7992C12.4197 18.9046 13.9258 19.949 15.6126 21.12C17.2994 22.2911 18.756 23.2646 18.8495 23.2833C19.2144 23.3563 19.5476 23.0754 19.5476 22.6947C19.5476 22.5836 19.0334 20.798 18.4051 18.7267C17.7767 16.6553 17.2559 14.9269 17.2478 14.8858C17.2398 14.8447 18.6833 13.7158 20.4558 12.3771C22.2283 11.0384 23.7244 9.87068 23.7807 9.78214C23.9074 9.58251 23.9107 9.40415 23.7918 9.17417C23.6213 8.84447 23.6601 8.84798 19.3132 8.76929C16.5358 8.71908 15.2798 8.67666 15.2354 8.6316C15.2002 8.59574 14.6228 6.98441 13.9524 5.05082C13.282 3.11722 12.682 1.39474 12.6191 1.22312C12.4382 0.730054 12.0509 0.558961 11.6579 0.79855Z" fill="#DE596D"/>
</svg>
