<svg width="32" height="32" viewBox="0 0 32 32" fill="none" xmlns="http://www.w3.org/2000/svg">
<path fill-rule="evenodd" clip-rule="evenodd" d="M28.593 2.74596L25.8414 5.4914L25.4879 5.16783C24.8277 4.56352 24.0629 4.20496 23.1212 4.05833C22.6912 3.9914 22.3132 4.0019 21.5532 4.10196L21.2651 4.1399L20.7095 3.62783C19.5552 2.56421 18.4079 1.96452 16.9077 1.6409C16.5445 1.56258 16.1334 1.53333 15.4351 1.53627C14.6074 1.53965 14.3708 1.56408 13.8101 1.7039C12.4231 2.0499 11.3361 2.64202 10.2736 3.63052C9.89256 3.98496 9.86187 4.00058 9.54606 4.00108C8.77887 4.00215 7.83974 4.25671 7.20049 4.63677C6.50193 5.05215 5.70624 5.9404 5.41906 6.62558C5.29149 6.92996 5.16324 7.02102 4.60437 7.20402C3.94518 7.4199 3.49868 7.70171 3.02874 8.19858C1.07249 10.2666 2.09774 13.6307 4.90137 14.3434C5.16524 14.4105 5.59812 14.4381 6.38574 14.4381H7.49762V15.0234C7.49762 15.5209 7.51706 15.6335 7.62718 15.7734C7.77481 15.9611 8.08093 15.9966 8.28256 15.8496C8.38499 15.7748 8.40874 15.6606 8.43512 15.1152L8.46637 14.4693L10.4761 14.4528L12.4859 14.4364L12.5074 15.0558C12.5327 15.7871 12.617 15.9381 12.9997 15.9381C13.3419 15.9381 13.3991 15.828 13.4351 15.1007L13.4664 14.4693L15.1382 14.4527C16.0577 14.4435 16.8101 14.4574 16.8101 14.4835C16.8101 14.5096 16.0596 15.282 15.1422 16.1998L13.4742 17.8686L13.3327 17.7158C13.1501 17.5188 12.8165 17.5084 12.6481 17.6945C12.5565 17.7957 12.5244 17.9426 12.5082 18.3351L12.4872 18.8443L11.7591 19.5787C11.3585 19.9826 11.0093 20.3131 10.983 20.3131C10.9567 20.3131 10.9351 20.2006 10.9351 20.0631C10.9351 19.7473 10.766 19.5631 10.4761 19.5631C10.1012 19.5631 10.0317 19.7152 10.0094 20.5851L9.98981 21.3443L4.99374 26.3453C-0.420194 31.7644 -0.191569 31.5046 0.151056 31.8471C0.495306 32.1915 0.172681 32.4801 6.37993 26.2741L12.1076 20.5477L12.4432 20.7984C13.5115 21.5961 14.6302 21.9567 16.0289 21.9541C16.7016 21.9528 16.9489 21.9244 17.4664 21.7888C19.5953 21.2308 21.2274 19.5988 21.7859 17.4693C21.9223 16.9494 21.9499 16.7077 21.9501 16.0318C21.9504 14.6258 21.5922 13.5131 20.7958 12.4468L20.5456 12.1117L22.3341 10.3193C23.8907 8.75921 24.1226 8.50227 24.1226 8.33715C24.1226 8.09708 23.8965 7.87558 23.6514 7.87558C23.495 7.87558 23.0756 8.26915 20.6534 10.6893L17.8372 13.5029L11.461 13.4861L5.08481 13.4693L4.58812 13.2245C2.20493 12.0499 2.48687 8.79196 5.03649 8.04352C5.73499 7.83852 5.93818 7.66033 6.32799 6.91108C6.93462 5.74508 8.01193 5.04596 9.33162 4.96196C10.2128 4.9059 10.3161 4.86433 10.8913 4.33465C12.3606 2.98165 14.0309 2.34846 15.8389 2.45908C17.4382 2.55696 18.8881 3.19915 20.0914 4.34258C20.7947 5.01102 20.8504 5.03677 21.5289 5.00777C22.786 4.95402 23.1404 4.97258 23.5601 5.11446C24.0701 5.28677 24.5061 5.53627 24.8904 5.8759L25.1896 6.14008L24.8748 6.47283C24.515 6.85333 24.4764 7.04752 24.7136 7.28465C25.0512 7.62233 24.9302 7.72302 28.6064 4.04683C32.2826 0.370647 32.1819 0.491647 31.8442 0.154022C31.5116 -0.178666 31.5747 -0.228978 28.593 2.74596ZM24.6158 11.924C23.5636 12.3615 22.6566 12.758 22.6002 12.8051C22.4582 12.9238 22.4654 13.3271 22.6119 13.4596C22.6748 13.5165 22.8125 13.5631 22.9179 13.5631C23.1807 13.5631 26.8745 12.034 27.0132 11.8678C27.0734 11.7957 27.1226 11.6683 27.1226 11.5846C27.1226 11.3916 26.8602 11.1251 26.6723 11.1271C26.5934 11.128 25.668 11.4866 24.6158 11.924ZM20.1164 13.095C20.3972 13.486 20.7749 14.3219 20.9069 14.8443C21.0561 15.4351 21.0563 16.5646 20.9072 17.1568C20.6426 18.2084 19.9744 19.2589 19.1464 19.9254C18.6514 20.3237 17.7874 20.7508 17.1539 20.9102C16.5656 21.0583 15.4339 21.0589 14.8414 20.9115C14.3547 20.7903 13.2562 20.276 12.9664 20.0335L12.7789 19.8766L16.3099 16.3449C18.252 14.4024 19.8574 12.8131 19.8774 12.8131C19.8975 12.8131 20.0051 12.94 20.1164 13.095ZM23.1851 15.6881C22.9145 15.9587 23.095 16.3929 23.5097 16.469C23.6234 16.4899 25.0618 16.4985 26.7062 16.4881L29.6961 16.4693L29.8468 16.294C30.0316 16.0791 30.0367 15.9421 29.8681 15.7278L29.7386 15.5631H26.5243C23.3934 15.5631 23.3069 15.5663 23.1851 15.6881ZM5.12718 16.2278C5.01612 16.369 4.99762 16.4799 4.99762 17.0055C4.99762 17.5533 5.01262 17.6353 5.13824 17.7751C5.34137 18.0012 5.60699 18.0162 5.81012 17.8131C5.91999 17.7032 5.93512 17.6048 5.93512 17.0006C5.93512 16.3964 5.91999 16.298 5.81012 16.1881C5.62399 16.002 5.28949 16.0214 5.12718 16.2278ZM10.1272 16.2278C10.0161 16.369 9.99762 16.4799 9.99762 17.0055C9.99762 17.5577 10.0121 17.6355 10.1434 17.7881C10.3282 18.0029 10.6604 18.0135 10.8252 17.8099C10.9151 17.699 10.9351 17.5498 10.9351 16.9936C10.9351 16.3964 10.9198 16.2978 10.8101 16.1881C10.624 16.002 10.2895 16.0214 10.1272 16.2278ZM7.62718 17.7278C7.51612 17.869 7.49762 17.9799 7.49762 18.5055C7.49762 19.0583 7.51199 19.1353 7.64399 19.2888C7.83381 19.5095 8.15306 19.5226 8.31987 19.3166C8.41612 19.1977 8.43512 19.062 8.43512 18.4936C8.43512 17.8964 8.41981 17.7978 8.31012 17.6881C8.12399 17.502 7.78949 17.5214 7.62718 17.7278ZM22.6011 18.5524C22.4636 18.7043 22.467 19.0798 22.607 19.2008C22.7563 19.3299 26.5189 20.8756 26.6838 20.8756C26.8627 20.8756 27.1226 20.6037 27.1226 20.4166C27.1226 20.3329 27.0734 20.2055 27.0132 20.1334C26.8701 19.9619 23.1792 18.4381 22.9071 18.4381C22.7902 18.4381 22.6607 18.4865 22.6011 18.5524ZM5.12718 19.7278C5.01718 19.8676 4.99762 19.9803 4.99762 20.4748C4.99762 20.7951 5.02937 21.127 5.06824 21.2121C5.21268 21.5293 5.70837 21.5575 5.86881 21.2577C5.90531 21.1895 5.93512 20.8366 5.93512 20.4735C5.93512 19.8964 5.91937 19.7973 5.81012 19.6881C5.62399 19.502 5.28949 19.5214 5.12718 19.7278ZM20.9761 20.9899C20.9192 21.0528 20.8726 21.201 20.8726 21.3193C20.8726 21.5184 21.0209 21.6825 22.8592 23.5175C23.9519 24.6082 24.8927 25.5006 24.9501 25.5006C25.0074 25.5006 25.1227 25.4693 25.2066 25.4312C25.3626 25.3601 25.4976 25.1383 25.4976 24.953C25.4976 24.8957 24.6052 23.9549 23.5146 22.8622C21.6426 20.987 21.5188 20.8756 21.3055 20.8756C21.1659 20.8756 21.0399 20.9193 20.9761 20.9899ZM7.62099 21.235C7.50906 21.3768 7.49018 21.466 7.51312 21.7453C7.55618 22.2703 7.90418 22.4716 8.27043 22.1835C8.41524 22.0696 8.43512 22.0093 8.43512 21.6835C8.43512 21.2375 8.30462 21.0631 7.97093 21.0631C7.81181 21.0631 7.72181 21.1073 7.62099 21.235ZM12.797 22.61C12.6662 22.7604 11.1226 26.5161 11.1226 26.6837C11.1226 26.8652 11.3931 27.1256 11.5816 27.1256C11.6653 27.1256 11.7919 27.0763 11.8629 27.0162C12.0361 26.8694 13.5601 23.1764 13.5601 22.9034C13.5601 22.7591 13.5175 22.6653 13.4212 22.5979C13.2359 22.4681 12.9149 22.4743 12.797 22.61ZM18.5741 22.5979C18.4777 22.6653 18.4351 22.7591 18.4351 22.9034C18.4351 23.1764 19.9591 26.8694 20.1324 27.0162C20.2034 27.0763 20.3299 27.1256 20.4136 27.1256C20.6021 27.1256 20.8726 26.8652 20.8726 26.6837C20.8726 26.5161 19.329 22.7604 19.1982 22.61C19.0804 22.4743 18.7594 22.4681 18.5741 22.5979ZM5.12718 23.2278C5.02524 23.3573 4.99762 23.4821 4.99762 23.8131C4.99762 24.3395 5.13868 24.5631 5.47093 24.5631C5.83124 24.5631 5.93512 24.3976 5.93512 23.824C5.93512 23.3935 5.91774 23.3186 5.79049 23.199C5.58581 23.0067 5.29099 23.0195 5.12718 23.2278ZM15.6896 23.1836C15.6234 23.2498 15.5514 23.4256 15.5298 23.5742C15.5082 23.7228 15.4991 25.1616 15.5097 26.7716L15.5289 29.699L15.7042 29.8498C15.9256 30.0401 16.0697 30.0401 16.291 29.8498L16.4664 29.699L16.4856 26.7716C16.4961 25.1616 16.4871 23.7228 16.4654 23.5742C16.4178 23.247 16.2495 23.0631 15.9976 23.0631C15.8945 23.0631 15.7559 23.1173 15.6896 23.1836Z" fill="#DE596D"/>
</svg>
