<svg width="32" height="32" viewBox="0 0 32 32" fill="none" xmlns="http://www.w3.org/2000/svg">
<path fill-rule="evenodd" clip-rule="evenodd" d="M14.4952 0.0371098C6.11513 0.845985 -0.260617 8.05161 0.00819513 16.4099C0.0863201 18.8408 0.61232 20.9455 1.6782 23.0927C3.23538 26.2297 5.72301 28.717 8.86632 30.28C13.9619 32.8138 19.9839 32.4654 24.7367 29.3619C26.595 28.1484 28.3562 26.3494 29.5585 24.4365C30.0154 23.7094 30.7054 22.296 31.0188 21.4452C31.3345 20.5877 31.7027 19.0995 31.8393 18.1286C31.9776 17.1452 31.9963 14.87 31.8731 14.0036C31.5042 11.4082 30.6811 9.19855 29.3147 7.13492C28.7336 6.2573 28.1532 5.54923 27.3446 4.73142C24.8519 2.21017 21.7511 0.646485 18.2054 0.122672C17.4409 0.00973482 15.2922 -0.0398277 14.4952 0.0371098ZM17.6742 8.1518C20.4048 8.78186 22.5558 10.6862 23.4723 13.2849C23.8077 14.236 23.8921 14.769 23.8878 15.9099C23.8846 16.7899 23.8603 17.0427 23.7224 17.6339C22.9921 20.7635 20.597 23.0755 17.4356 23.7025C17.0706 23.7749 16.5859 23.8105 15.9554 23.8114C14.8394 23.813 14.0696 23.6692 13.0667 23.2721L12.4279 23.0192L10.4104 23.4969C9.30082 23.7596 8.35845 23.974 8.31626 23.9735C8.27407 23.9729 8.19857 23.9091 8.14845 23.8317C8.06582 23.7042 8.09745 23.4977 8.48776 21.6156L8.9182 19.5402L8.66632 18.9375C8.24732 17.9347 8.08957 17.1202 8.08601 15.9411C8.0817 14.5075 8.29695 13.5811 8.92932 12.312C9.98532 10.1928 12.0766 8.59517 14.3929 8.1383C15.1751 7.98405 15.2132 7.98124 16.2054 8.00592C16.8404 8.02167 17.3144 8.06874 17.6742 8.1518ZM14.8831 9.81105C12.8549 10.1963 11.0606 11.6218 10.2981 13.4535C9.91657 14.3699 9.83976 14.7772 9.83488 15.9099C9.82963 17.1328 9.93276 17.6125 10.4215 18.6391L10.7241 19.2746L10.4784 20.4494C10.3433 21.0955 10.2406 21.6551 10.2503 21.693C10.2618 21.738 10.6839 21.6647 11.4684 21.4814L12.6689 21.201L13.2809 21.4882C14.288 21.9608 14.7748 22.0644 15.9867 22.064C16.8669 22.0639 17.0958 22.0427 17.5492 21.9199C19.3687 21.4272 20.8204 20.2071 21.6216 18.4975C22.0452 17.5935 22.1337 17.156 22.1386 15.9411C22.1424 15.0155 22.1243 14.8102 21.9979 14.3474C21.3954 12.1402 19.7314 10.4956 17.4976 9.8993C16.8796 9.7343 15.5272 9.68867 14.8831 9.81105ZM13.6679 12.2C13.8119 12.3009 14.0748 12.818 14.4313 13.7021C14.6381 14.2149 14.6271 14.2874 14.2714 14.7533C13.9621 15.1585 13.9699 15.3894 14.3079 15.8274C14.9214 16.6225 16.5287 17.9099 16.908 17.9099C17.1191 17.9099 17.2834 17.8117 17.6548 17.4637C17.8333 17.2966 18.0301 17.1599 18.0924 17.1599C18.1547 17.1599 18.5993 17.2719 19.0806 17.4087C19.7559 17.6008 19.9875 17.6942 20.0961 17.8184C20.3176 18.0719 20.2815 18.3352 19.9665 18.7631C19.3977 19.5358 18.9869 19.751 18.0804 19.7515C17.3341 19.7518 16.7857 19.6039 16.0056 19.1916C15.2728 18.8044 14.7371 18.405 13.9929 17.6911C12.6485 16.4015 11.9856 15.1939 11.9873 14.0374C11.9883 13.3995 12.3668 12.7092 12.9514 12.2793C13.2305 12.074 13.4529 12.0494 13.6679 12.2Z" fill="white"/>
</svg>
